<?xml version="1.0" encoding="utf-8"?>
<!-- Generator: Adobe Illustrator 25.0.0, SVG Export Plug-In . SVG Version: 6.00 Build 0)  -->
<svg version="1.1" id="Capa_1" xmlns="http://www.w3.org/2000/svg" xmlns:xlink="http://www.w3.org/1999/xlink" x="0px" y="0px"
	 viewBox="0 0 471.5 471.5" style="enable-background:new 0 0 471.5 471.5;" xml:space="preserve">
<style type="text/css">
	.st0{fill:#FFFFFF;}
	.st1{fill:#02372F;}
</style>
<g>
	<circle class="st0" cx="190" cy="137.3" r="23.9"/>
	<circle class="st0" cx="190" cy="137.3" r="15.9"/>
</g>
<g>
	<circle class="st0" cx="281.5" cy="137.3" r="23.9"/>
	<circle class="st0" cx="281.5" cy="137.3" r="15.9"/>
</g>
<g>
	<path class="st1" d="M190,169.2c17.7,0,32-14.3,32-32s-14.3-32-32-32s-32,14.3-32,32S172.4,169.2,190,169.2z M190,121.2
		c8.8,0,16,7.2,16,16s-7.2,16-16,16s-16-7.2-16-16C174.1,128.4,181.2,121.3,190,121.2L190,121.2z"/>
	<path class="st1" d="M281.5,169.2c17.7,0,32-14.3,32-32s-14.3-32-32-32s-32,14.3-32,32S263.9,169.2,281.5,169.2z M281.5,121.2
		c8.8,0,16,7.2,16,16s-7.2,16-16,16s-16-7.2-16-16C265.6,128.4,272.7,121.3,281.5,121.2L281.5,121.2z"/>
	<path class="st1" d="M128.3,193.8c2.4,35.1,28.5,48,53,48h108.8c36.6,0,51.2-24,53-48c24.2-4.4,40.3-27.6,35.9-51.8
		c-3.5-19-18.7-33.6-37.9-36.2c-5.3-19.5-20.5-36.2-51-36.2h-46.4V52.1c14-4.4,21.8-19.4,17.4-33.4S241.8-3.2,227.8,1.2
		S206,20.6,210.4,34.6c2.6,8.3,9.1,14.8,17.4,17.4v17.2h-46.3c-21.6,0-44.3,9.9-51.2,36.2c-24.4,3.3-41.4,25.8-38.1,50.2
		c2.6,19.1,17.3,34.4,36.2,37.8L128.3,193.8z M363.8,149.9c0,12.7-8.4,23.8-20.6,27.4v-54.7C355.3,126.1,363.7,137.2,363.8,149.9z
		 M225.1,27.1c0-5.9,4.8-10.6,10.6-10.6s10.6,4.8,10.6,10.6s-4.8,10.6-10.6,10.6l0,0C229.9,37.7,225.1,33,225.1,27.1z M144.1,123.1
		c0-32.5,23.4-37.3,37.3-37.3h108.8c32.5,0,37.3,23.4,37.3,37.3v65c0,13.9-4.9,37.3-37.3,37.3H181.5c-13.9,0-37.3-4.9-37.3-37.3
		L144.1,123.1z M128.1,123.1v54.7c-15.1-4.4-23.8-20.2-19.5-35.3C111.4,133.2,118.7,125.8,128.1,123.1z"/>
	<path class="st1" d="M281.5,190.9H190c-4.4,0-8,3.6-8,8s3.6,8,8,8h91.5c4.4,0,8-3.6,8-8S286,190.9,281.5,190.9z"/>
	<path class="st1" d="M413.8,256.8c-0.2-17.1-14.2-30.9-31.3-30.8c-14.3,0.1-26.7,10.1-30,24l-21.4,4.2H140.4l-21.4-4.2
		c-3.7-16.7-20.2-27.4-37-23.7s-27.4,20.2-23.7,37c2.5,11.4,11.1,20.4,22.4,23.4v59.8c-13.5,3.6-23,15.8-23,29.8v14.2
		c0,4.4,3.6,8,8,8s8-3.6,8-8v-14.2c0-8.3,6.7-15,15-15s15,6.7,15,15l0,0v14.2c0,4.4,3.6,8,8,8s8-3.6,8-8v-14.2
		c-0.1-14-9.5-26.2-23-29.8v-59.8c10.2-2.7,18.2-10.5,21.4-20.5l13.4,2.6v98.7c0,14.5,3.1,28.8,9,42v0.7
		c23.6,52.4,85.2,75.7,137.6,52c23.1-10.4,41.6-28.9,52-52l0.4-0.9c6-13.2,9.1-27.4,9.2-41.8v-98.7l13.4-2.6
		c3.2,10,11.3,17.7,21.4,20.5v59.8c-13.5,3.6-23,15.8-23,29.8v14.2c0,4.4,3.6,8,8,8s8-3.6,8-8v-14.2c0-8.3,6.7-15,15.1-15
		c8.3,0,15,6.7,15,15v14.2c0,4.4,3.6,8,8,8s8-3.6,8-8v-14.2c-0.1-14-9.5-26.2-23-29.8v-59.8C404.2,283.1,413.7,270.8,413.8,256.8
		L413.8,256.8z M88.8,271.8c-8.3,0-15-6.7-15-15s6.7-15,15-15s15,6.7,15,15C103.9,265.1,97.1,271.8,88.8,271.8L88.8,271.8z
		 M235.8,455.6c-30.1,0-58.2-15.4-74.3-40.9h148.6C294,440.2,265.9,455.6,235.8,455.6z M323.8,367.6c0,10.7-2,21.2-5.8,31.2H153.5
		c-3.8-10-5.8-20.5-5.8-31.2v-97.4h176.2V367.6z M382.6,271.6c-8.3,0-15-6.7-15-15s6.7-15,15-15s15,6.7,15,15
		c0.1,8.3-6.5,15.1-14.8,15.3c0,0-0.1,0-0.1,0L382.6,271.6z"/>
</g>
<path class="st1" d="M210.7,385.7c3.3,3,8.3,2.7,11.3-0.6l42.6-47.2c3-3.3,2.7-8.3-0.6-11.3c-1.5-1.3-3.4-2.1-5.3-2.1h-24l29.4-30.2
	c2.8-3.4,2.4-8.4-1-11.3c-3-2.5-7.5-2.5-10.4,0.1l-42.6,43.8c-3.1,3.2-3,8.2,0.1,11.3c1.5,1.5,3.5,2.3,5.6,2.3h24.6l-30.3,33.8
	C207.2,377.7,207.5,382.8,210.7,385.7L210.7,385.7z"/>
</svg>
